<svg xmlns="http://www.w3.org/2000/svg" viewBox="0 0 64 64" width="512" height="512">
  <defs>
    <linearGradient id="g" x1="0" x2="1" y1="0" y2="1">
      <stop offset="0%" stop-color="#00FFA3" />
      <stop offset="100%" stop-color="#00CCFF" />
    </linearGradient>
  </defs>
  <rect width="64" height="64" rx="12" fill="#7C3AED"/>
  <g transform="translate(8,8) scale(0.75)">
    <path d="M24 2C14.1 2 6.2 9.3 6.2 18.6C6.2 29.3 12.1 39.6 22 44c2.2 1 3.8 3.1 3.8 5.5v6.9c0 .6.5 1 1 1s1-.4 1-1V49c0-2.4 1.6-4.5 3.8-5.5 9.9-4.4 15.8-14.7 15.8-25.4C41.8 9.3 33.9 2 24 2z" fill="white"/>
    <circle cx="16" cy="16" r="2.8" fill="#7C3AED"/>
    <circle cx="32" cy="16" r="2.8" fill="#7C3AED"/>
  </g>
</svg>